<?xml version="1.0" encoding="utf-8"?>
<!-- Generator: Adobe Illustrator 23.0.1, SVG Export Plug-In . SVG Version: 6.00 Build 0)  -->
<svg version="1.1" id="Layer_1" xmlns="http://www.w3.org/2000/svg" xmlns:xlink="http://www.w3.org/1999/xlink" x="0px" y="0px"
	 viewBox="0 0 713.4 224.4" xml:space="preserve" fill="#fff">
<g>
	<path d="M237,71c7,0,13.9,0,20.9,0c7.7,12.4,15.3,24.7,23.1,37.2c7.8-12.5,15.4-24.9,23.1-37.2c6.9,0,13.8,0,20.7,0
		c0.2,0.8,0.3,86.6,0.1,88.2c-6.3,0-12.6,0-19,0c-0.2-2.4-0.1-4.8-0.1-7.2c0-2.4,0-4.7,0-7.1c0-2.4,0-4.8,0-7.2c0-2.4,0-4.7,0-7.1
		c0-2.4,0-4.8,0-7.2c0-2.4,0-4.7,0-7.1c0-2.4,0-4.8,0-7.2c0-2.3,0-4.7,0-7c-0.1,0-0.2-0.1-0.3-0.1c-0.2,0.3-0.5,0.7-0.7,1
		c-7.7,11.7-15.3,23.3-23,35c-1.1,1.7-1.1,1.7-2.2,0c-7.6-11.5-15.1-23-22.7-34.5c-0.2-0.4-0.5-0.7-0.9-1.3
		c-0.1,0.6-0.1,0.9-0.1,1.2c0,2.7,0,5.4,0,8.1c0,15.3,0,30.7,0,46c0,0.5,0,1,0,1.5c-6.4,0-12.6,0-18.9,0C237,129.8,237,100.5,237,71
		z"/>
	<path d="M476.3,100.1c0-10.9,0-21.8,0-32.8c6.4,0,12.7,0,18.9,0c0.2,0.8,0.4,89.6,0.1,91.9c-6.3,0-12.6,0-19,0c0-3.1,0-6.1,0-9.4
		c-0.4,0.5-0.6,0.7-0.8,0.9c-1.1,1.2-2.2,2.5-3.4,3.6c-3.8,3.6-8.3,5.7-13.6,6.2c-8.4,0.7-16-1.4-22.5-7c-4.3-3.7-7.2-8.3-9.1-13.6
		c-2.1-5.6-2.6-11.3-2.3-17.2c0.3-5.2,1.4-10.2,3.7-14.9c1.6-3.2,3.5-6.2,6.1-8.8c5-5.1,11.1-7.8,18.1-8.4c3.3-0.3,6.6-0.1,9.8,0.6
		c4.2,0.9,7.6,3.2,10.7,6c1.1,0.9,2,2,3,3C476.1,100.1,476.2,100.1,476.3,100.1z M476.6,125.5c0.1-4.2-0.9-8.1-3.2-11.6
		c-3.6-5.7-10-8.3-16.5-6.9c-5.1,1.1-8.6,4.2-10.9,8.7c-1.3,2.5-1.9,5.1-2.1,7.9c-0.3,4.8,0.5,9.3,3.2,13.3c3.8,5.6,9.2,8,16,7
		c4.9-0.8,8.4-3.6,10.9-7.9C475.8,132.8,476.7,129.3,476.6,125.5z"/>
	<path d="M377,90.4c7.2,0,13.5,1.5,19.3,4.8c10,5.8,15.9,14.5,17.3,26c2.3,19.3-10.5,34.7-27.3,38.5c-10.2,2.3-20,1.1-29-4.4
		c-9.3-5.7-14.8-14.2-16.2-25c-2.5-20,11-35.4,27.9-39C371.8,90.7,374.6,90.4,377,90.4z M394.9,125.7c0-0.4,0-0.9,0-1.3
		c-0.5-10-8-16.9-16.3-17.5c-7.8-0.5-14.1,3.2-17,9.8c-1.6,3.6-2,7.4-1.7,11.3c0.9,8.8,8.4,16.9,18.9,16.2c5.8-0.4,10.3-3,13.4-8
		C394.1,133,394.9,129.5,394.9,125.7z"/>
	<path d="M668.5,120.7c0.1-2.3-0.1-4.4-0.9-6.4c-1-2.6-2.9-4.4-5.4-5.5c-2.1-0.9-4.3-1.3-6.5-1.4c-6.6-0.3-12.9,0.9-19.1,3.2
		c-0.4,0.1-0.7,0.2-1.2,0.4c-1.6-4.9-3.2-9.7-4.8-14.5c0.4-0.2,0.7-0.4,1-0.5c4.6-1.9,9.4-3.5,14.3-4.2c7.2-1,14.3-1.3,21.5,0.4
		c1.8,0.4,3.6,1,5.2,1.8c6.9,3.1,11.1,8.4,13,15.7c0.8,3,1.2,6.1,1.2,9.2c0,13.2,0,26.4,0,39.5c0,0.3,0,0.6-0.1,1
		c-6.1,0-12.2,0-18.3,0c-0.1-2.3,0-4.5-0.1-6.9c-0.5,0.1-0.7,0.5-1,0.7c-3.3,3.1-7,5.5-11.4,6.5c-6.1,1.4-12.1,1.4-18-0.8
		c-7.2-2.7-11.6-7.8-12.8-15.4c-0.7-4.7-0.3-9.3,1.9-13.6c2.4-4.7,6.2-7.6,11-9.5c4.2-1.6,8.6-2.2,13.1-2.3c5.5-0.1,10.8,0.6,16,2.3
		C667.5,120.4,667.9,120.6,668.5,120.7z M668.7,132c-0.2-0.1-0.3-0.2-0.5-0.3c-4.7-2-9.5-2.6-14.5-2.1c-1.5,0.2-3.1,0.5-4.6,1.1
		c-4.1,1.5-5.9,4.4-5.8,8.7c0.1,2.7,1.2,4.8,3.5,6.1c0.9,0.5,1.8,0.9,2.8,1.2c2,0.6,4.1,0.6,6.2,0.4c3-0.2,5.9-1.1,8.3-2.9
		c2-1.4,3.4-3.3,4.1-5.6C669,136.5,668.8,134.3,668.7,132z"/>
	<path d="M554.7,91.8c6.4,0,12.7,0,19.1,0c0,22.5,0,44.9,0,67.3c-0.9,0.2-17.7,0.3-19,0c0-3,0-6,0-9.3c-0.4,0.4-0.6,0.6-0.8,0.8
		c-1.8,2.2-3.7,4.2-6,5.8c-3.7,2.6-7.8,4-12.4,4c-2.6,0-5.3-0.2-7.8-0.8c-6.6-1.8-11.1-6-13.7-12.3c-1.6-3.9-2-8-2-12.1
		c0-14,0-28.1,0-42.1c0-0.4,0-0.8,0-1.3c6.4,0,12.7,0,19.1,0c0,0.5,0,1,0,1.4c0,11.8,0,23.7,0,35.5c0,2,0.1,4.1,0.6,6.1
		c1.3,5.1,5,8.1,10.3,8.2c1.4,0,2.8,0,4.1-0.4c4.5-1.1,7.1-4.1,8-8.5c0.4-1.7,0.5-3.5,0.5-5.3c0-11.8,0-23.7,0-35.5
		C554.7,92.9,554.7,92.4,554.7,91.8z"/>
	<path d="M610.8,159.2c-6.3,0-12.6,0-19,0c0-30.6,0-61.2,0-91.8c0.8-0.3,17.1-0.3,19-0.1C610.8,97.9,610.8,128.5,610.8,159.2z"/>
	<path d="M61.9,169.5c-14.3-4.3-28.6-8.5-43-12.8c14.3-21.4,28.6-42.8,42.8-64.1c0.1,0,0.1,0,0.2,0.1
		C61.9,118.2,61.9,143.8,61.9,169.5z"/>
	<path d="M144.7,134.3c-1-25.5-1.9-51-2.9-76.7c14.5,3.7,28.9,7.4,43.5,11.2c-13.5,22-26.9,43.8-40.3,65.7
		C144.9,134.3,144.8,134.3,144.7,134.3z"/>
	<path d="M185.3,160.9c-25.8-1.1-51.5-2.1-77.2-3.2c0-0.1,0-0.2-0.1-0.3c21.9-13.3,43.8-26.5,65.9-39.9
		C177.7,132,181.5,146.4,185.3,160.9z"/>
	<path d="M23.1,63c25.9,1.4,51.4,2.7,77,4c0.1,0.1,0.1,0.2,0.1,0.2c0,0,0,0.1,0,0.1c-0.4,0.2-0.7,0.5-1.1,0.7
		c-21.6,12.8-43.3,25.5-65,38.4C30.3,92,26.7,77.6,23.1,63z"/>
	<path d="M100.3,206c-12.2-22.7-24.4-45.3-36.6-67.9c1,0.2,66.5,35.1,68.1,36.2C121.3,184.8,110.9,195.3,100.3,206z"/>
	<path d="M73.9,50.3c10.6-10.4,21.2-20.8,31.8-31.2c0.6,0.6,34.8,66.2,35.6,68.2c0,0-0.1,0.1-0.1,0.1c0,0-0.1,0-0.1,0
		c-22.3-12.3-44.6-24.5-66.8-36.8C74.2,50.6,74.1,50.5,73.9,50.3z"/>
</g>
</svg>
