<?xml version="1.0" encoding="utf-8"?>
<!-- Generator: Adobe Illustrator 19.0.0, SVG Export Plug-In . SVG Version: 6.00 Build 0)  -->
<svg version="1.1" id="Layer_1" xmlns="http://www.w3.org/2000/svg" xmlns:xlink="http://www.w3.org/1999/xlink" x="0px" y="0px"
	 viewBox="364 242.9 2290 357" style="enable-background:new 364 242.9 2290 357;" xml:space="preserve">
<style type="text/css">
	.st0{fill:#2ebf91;}
</style>
<g>
	<path class="st0" d="M528.1,242.9c8.5,16.9,17,33.8,25.6,50.6c13.4,26.4,26.9,52.7,39.9,79.7c-41.8-23.3-83.6-46.7-125.4-70.1
		c0.3-1.9,1.7-2.6,2.7-3.5c17.7-17.7,35.4-35.4,53.1-53c1.1-1.1,2.6-2,3.1-3.7C527.4,242.9,527.8,242.9,528.1,242.9z"/>
	<path class="st0" d="M602.3,463.3c11.3-6.9,22.6-13.9,33.9-20.8c5.5-3.4,11.1-6.7,16.5-10.3c2.2-1.4,2.9-1.1,3.5,1.5
		c6.4,25.3,13,50.6,19.6,75.8c0.6,2.2,1,3.7-2.4,3.5c-46.7-2.1-93.5-4.1-140.2-6.1c-0.2,0-0.3-0.1-0.5-0.2c0.5-1.7,2.1-2,3.3-2.7
		c20-12.3,39.9-24.7,60-36.8c3.4-2.1,5.1-3.7,4.8-8.5c-1.4-21.3-1.8-42.6-2.6-63.9c-0.9-24.1-1.8-48.3-2.8-72.4
		c-0.2-6.1-0.2-6.1,5.5-4.6c23.8,6.2,47.6,12.5,71.5,18.5c3.9,1,4.2,1.9,2.1,5.4c-23.4,38.5-46.7,77.1-70,115.7c-1,1.7-2,3.4-3,5.1
		C601.7,462.8,602,463,602.3,463.3z"/>
	<path class="st0" d="M372.8,326.9c48,2.6,95.8,5.1,143.9,7.7c-0.9,2-2.5,2.3-3.7,3.1c-38.6,23.2-77.3,46.4-115.9,69.6
		c-3,1.8-4.3,2.6-5.4-1.9c-5.9-24.9-12.2-49.7-18.3-74.6C373.1,329.6,373,328.4,372.8,326.9z"/>
	<path class="st0" d="M517.6,599.9c-23.2-43.7-45.9-86.6-69.2-130.5c2.3,1.2,3.5,1.8,4.7,2.4c39.8,21.5,79.5,43.1,119.3,64.5
		c3.2,1.7,4.1,2.5,1,5.6c-17.7,17.8-35.2,35.9-52.8,53.9C519.7,596.9,518.9,598.2,517.6,599.9z"/>
	<path class="st0" d="M364.9,505.1c26.6-40.5,53.1-80.8,79.7-121.3c1.3,1.3,0.9,2.5,0.9,3.6c0,46-0.1,92-0.1,137.9
		c0,3.1-0.2,4.5-4,3.3c-24.9-7.7-49.9-15.2-74.9-22.8C366,505.8,365.7,505.5,364.9,505.1z"/>
</g>
<g>
	<path class="st0" d="M843.2,334.1H883l44.2,71l44.2-71h39.8v168h-36.5V392.4l-47.3,71.8h-1l-46.8-71v109h-36.5V334.1z"/>
	<path class="st0" d="M1110.8,505c-9.9,0-19.1-1.7-27.6-5.2c-8.5-3.4-15.8-8.2-22-14.2c-6.2-6-11-13-14.5-21.1
		c-3.5-8.1-5.3-16.8-5.3-26V438c0-9.3,1.8-18,5.3-26c3.5-8.1,8.4-15.2,14.6-21.2c6.2-6.1,13.6-10.9,22.1-14.4
		c8.5-3.5,17.8-5.3,27.8-5.3c9.9,0,19.1,1.7,27.6,5.2c8.5,3.4,15.8,8.2,22,14.2c6.2,6,11,13,14.5,21.1c3.5,8.1,5.3,16.8,5.3,26v0.5
		c0,9.3-1.8,18-5.3,26c-3.5,8.1-8.4,15.2-14.6,21.2c-6.2,6.1-13.6,10.9-22.1,14.4C1130.1,503.2,1120.8,505,1110.8,505z
		 M1111.2,473.5c5.3,0,10-0.9,14-2.8c4.1-1.8,7.6-4.4,10.4-7.6c2.9-3.2,5.1-6.9,6.6-11.2c1.5-4.2,2.3-8.8,2.3-13.6V438
		c0-4.8-0.8-9.3-2.4-13.6c-1.6-4.2-3.9-8-7-11.3c-3-3.3-6.6-5.9-10.8-7.8c-4.2-1.9-8.7-2.9-13.7-2.9c-5.3,0-10,0.9-14,2.8
		c-4.1,1.8-7.6,4.4-10.4,7.6c-2.9,3.2-5.1,6.9-6.6,11.2c-1.5,4.2-2.3,8.8-2.3,13.6v0.5c0,4.8,0.8,9.3,2.4,13.6c1.6,4.2,3.9,8,7,11.3
		c3,3.3,6.6,5.9,10.7,7.8C1101.5,472.6,1106.1,473.5,1111.2,473.5z"/>
	<path class="st0" d="M1259.8,504.5c-7.5,0-14.8-1.4-21.8-4.3c-7-2.9-13.3-7.2-18.7-12.8c-5.4-5.7-9.8-12.6-13.1-20.9
		c-3.3-8.2-4.9-17.7-4.9-28.4v-0.5c0-10.7,1.6-20.2,4.9-28.4c3.3-8.2,7.6-15.2,13-20.9c5.4-5.7,11.6-10,18.6-12.8
		c7-2.9,14.4-4.3,22.1-4.3c9.8,0,17.8,1.9,24.1,5.8c6.3,3.8,11.6,8.3,16,13.4v-63.4h36.5v175.2h-36.5v-18.5
		c-4.5,6.1-9.9,11.1-16.2,15C1277.4,502.5,1269.4,504.5,1259.8,504.5z M1269.2,473.5c4.3,0,8.4-0.8,12.1-2.5c3.8-1.7,7-4.1,9.8-7.2
		c2.8-3.1,5-6.9,6.7-11.3c1.7-4.4,2.5-9.2,2.5-14.5v-0.5c0-5.3-0.8-10.1-2.5-14.5c-1.7-4.4-3.9-8.2-6.7-11.3
		c-2.8-3.1-6.1-5.5-9.8-7.2c-3.8-1.7-7.8-2.5-12.1-2.5c-4.3,0-8.4,0.8-12.1,2.5c-3.8,1.7-7.1,4.1-10,7.2c-2.9,3.1-5.2,6.8-6.8,11.2
		c-1.7,4.3-2.5,9.2-2.5,14.6v0.5c0,5.3,0.8,10.1,2.5,14.5c1.7,4.4,4,8.2,6.8,11.3c2.9,3.1,6.2,5.5,10,7.2
		C1260.8,472.7,1264.8,473.5,1269.2,473.5z"/>
	<path class="st0" d="M1411.7,504.5c-13.9,0-24.7-4.2-32.3-12.7c-7.6-8.5-11.4-20.2-11.4-35v-83.3h36.5V445c0,8.6,1.9,15.1,5.8,19.5
		c3.8,4.4,9.3,6.6,16.3,6.6c7,0,12.6-2.2,16.7-6.6s6.1-10.9,6.1-19.5v-71.6h36.5v128.6h-36.5v-18.4c-2.1,2.7-4.4,5.4-6.8,7.9
		c-2.5,2.5-5.2,4.7-8.3,6.6c-3,1.9-6.4,3.5-10.1,4.6C1420.5,503.9,1416.4,504.5,1411.7,504.5z"/>
	<path class="st0" d="M1520.2,326.9h36.5v175.2h-36.5V326.9z"/>
	<path class="st0" d="M1627.5,504.5c-6.1,0-11.8-0.8-17.2-2.5c-5.4-1.7-10-4.2-14-7.6c-4-3.4-7.2-7.5-9.5-12.4
		c-2.3-4.9-3.5-10.5-3.5-16.9v-0.5c0-7,1.3-13.1,3.8-18.2c2.6-5.1,6.1-9.4,10.7-12.7c4.6-3.4,10-5.9,16.3-7.6
		c6.3-1.7,13.3-2.5,21-2.5c6.6,0,12.3,0.5,17.2,1.4c4.9,1,9.6,2.2,14.3,3.8v-2.2c0-7.7-2.3-13.5-7-17.5c-4.6-4-11.5-6-20.6-6
		c-7,0-13.2,0.6-18.6,1.8c-5.4,1.2-11,2.9-16.9,5.2l-9.1-27.8c7-3,14.4-5.5,22.1-7.4c7.7-1.9,17-2.9,27.8-2.9
		c10.1,0,18.7,1.2,25.8,3.7c7.1,2.5,13,6,17.6,10.7c4.8,4.8,8.3,10.7,10.6,17.6c2.2,7,3.4,14.8,3.4,23.4v74.6h-35.3v-13.9
		c-4.5,5-9.8,8.9-16.1,11.9C1644,503,1636.4,504.5,1627.5,504.5z M1638.5,479.3c8.6,0,15.6-2.1,20.8-6.2c5.2-4.2,7.8-9.6,7.8-16.3
		v-6.5c-3.2-1.4-6.8-2.6-10.7-3.5c-3.9-0.9-8.1-1.3-12.6-1.3c-7.8,0-14,1.5-18.5,4.6c-4.5,3-6.7,7.4-6.7,13.2v0.5
		c0,5,1.8,8.8,5.5,11.5C1627.8,477.9,1632.6,479.3,1638.5,479.3z"/>
	<path class="st0" d="M1889.8,505c-13.1,0-25.1-2.2-35.9-6.5c-10.8-4.3-20.1-10.3-27.8-18c-7.8-7.7-13.8-16.8-18.1-27.4
		c-4.3-10.6-6.5-22.1-6.5-34.6v-0.5c0-12,2.2-23.2,6.6-33.7c4.4-10.5,10.5-19.7,18.4-27.6c7.8-7.9,17.1-14.2,27.8-18.7
		c10.7-4.6,22.5-6.8,35.3-6.8c7.5,0,14.4,0.5,20.5,1.6c6.2,1,11.9,2.5,17.2,4.4c5.3,1.9,10.2,4.3,14.9,7.2c4.6,2.9,9.1,6.2,13.4,9.8
		l-23.3,28.1c-3.2-2.7-6.4-5.1-9.6-7.2c-3.2-2.1-6.5-3.8-10-5.3c-3.4-1.4-7.2-2.6-11.2-3.4c-4-0.8-8.4-1.2-13.2-1.2
		c-6.7,0-13,1.4-18.8,4.2c-5.8,2.8-11,6.6-15.4,11.3c-4.4,4.7-7.8,10.3-10.3,16.6c-2.5,6.3-3.7,13.1-3.7,20.3v0.5
		c0,7.7,1.2,14.8,3.7,21.3c2.5,6.5,6,12.1,10.6,17c4.6,4.8,9.9,8.5,16.1,11.2c6.2,2.6,13,4,20.5,4c13.8,0,25.4-3.4,34.8-10.2v-24.2
		h-37.2v-31.9h73v73c-8.6,7.4-18.9,13.6-30.8,18.8C1918.8,502.4,1905.1,505,1889.8,505z"/>
	<path class="st0" d="M2029.7,504.5c-6.1,0-11.8-0.8-17.2-2.5c-5.4-1.7-10-4.2-14-7.6c-4-3.4-7.2-7.5-9.5-12.4
		c-2.3-4.9-3.5-10.5-3.5-16.9v-0.5c0-7,1.3-13.1,3.8-18.2c2.6-5.1,6.1-9.4,10.7-12.7c4.6-3.4,10-5.9,16.3-7.6
		c6.3-1.7,13.3-2.5,21-2.5c6.6,0,12.3,0.5,17.2,1.4c4.9,1,9.6,2.2,14.3,3.8v-2.2c0-7.7-2.3-13.5-7-17.5c-4.6-4-11.5-6-20.6-6
		c-7,0-13.2,0.6-18.6,1.8c-5.4,1.2-11,2.9-16.9,5.2l-9.1-27.8c7-3,14.4-5.5,22.1-7.4c7.7-1.9,17-2.9,27.8-2.9
		c10.1,0,18.7,1.2,25.8,3.7c7.1,2.5,13,6,17.6,10.7c4.8,4.8,8.3,10.7,10.6,17.6c2.2,7,3.4,14.8,3.4,23.4v74.6h-35.3v-13.9
		c-4.5,5-9.8,8.9-16.1,11.9C2046.3,503,2038.7,504.5,2029.7,504.5z M2040.7,479.3c8.6,0,15.6-2.1,20.8-6.2c5.2-4.2,7.8-9.6,7.8-16.3
		v-6.5c-3.2-1.4-6.8-2.6-10.7-3.5c-3.9-0.9-8.1-1.3-12.6-1.3c-7.8,0-14,1.5-18.5,4.6c-4.5,3-6.7,7.4-6.7,13.2v0.5
		c0,5,1.8,8.8,5.5,11.5C2030,477.9,2034.8,479.3,2040.7,479.3z"/>
	<path class="st0" d="M2137,326.9h36.5v175.2H2137V326.9z"/>
	<path class="st0" d="M2209.5,326.9h36.5v175.2h-36.5V326.9z"/>
	<path class="st0" d="M2341.2,505c-9.6,0-18.5-1.6-26.8-4.8c-8.2-3.2-15.4-7.8-21.4-13.7c-6-5.9-10.7-12.9-14-21
		c-3.4-8.1-5-17.1-5-27V438c0-9.1,1.6-17.8,4.7-25.9s7.5-15.3,13.1-21.4c5.6-6.1,12.3-10.9,20-14.4c7.8-3.5,16.4-5.3,25.8-5.3
		c10.7,0,20,1.9,27.8,5.8c7.8,3.8,14.4,9,19.6,15.5c5.2,6.5,9,13.9,11.5,22.3c2.5,8.4,3.7,17.2,3.7,26.3c0,1.4,0,3-0.1,4.6
		c-0.1,1.6-0.2,3.3-0.4,5h-89.5c1.8,8.3,5.4,14.6,10.9,18.8c5.5,4.2,12.4,6.4,20.5,6.4c6.1,0,11.5-1,16.3-3.1
		c4.8-2.1,9.8-5.4,14.9-10.1l20.9,18.5c-6.1,7.5-13.4,13.4-22.1,17.6C2363.1,502.8,2352.9,505,2341.2,505z M2364.7,427.7
		c-1.1-8.2-4-14.8-8.6-19.8c-4.6-5-10.8-7.6-18.5-7.6c-7.7,0-13.9,2.5-18.6,7.4c-4.7,5-7.8,11.6-9.2,19.9H2364.7z"/>
	<path class="st0" d="M2427.4,373.4h36.5v25.9c3.7-8.8,8.7-15.8,15.1-21.1c6.4-5.3,15-7.7,25.9-7.2v38.2h-1.9
		c-12.2,0-21.7,3.7-28.7,11c-7,7.4-10.4,18.8-10.4,34.3v47.5h-36.5V373.4z"/>
	<path class="st0" d="M2558.4,541.2c-6.7,0-12.6-0.8-17.8-2.4c-5.1-1.6-10-3.8-14.6-6.5l12.2-26.4c2.4,1.4,5,2.6,7.8,3.6
		c2.8,1,5.4,1.4,7.8,1.4c3.2,0,5.7-0.6,7.6-1.8c1.8-1.2,3.6-3.4,5.2-6.6l-50.4-129.1h38.6l29.3,87.6l28.1-87.6h37.9l-49.4,131.8
		c-2.4,6.6-5,12.1-7.7,16.7c-2.7,4.6-5.7,8.3-9,11.2c-3.3,2.9-7,5-11.2,6.2C2568.6,540.6,2563.8,541.2,2558.4,541.2z"/>
</g>
</svg>
