<svg xmlns="http://www.w3.org/2000/svg" width="20" viewBox="0 0 32 32"><path fill="#f0f5fa" d="M9.3 25.3c-2.4-0.7-4.7-1.4-7.1-2.1 2.4-3.5 4.7-7 7-10.5C9.3 12.9 9.3 24.9 9.3 25.3z"/><path fill="#f0f5fa" d="M9.6 20.1c3.7 2 7.4 3.9 11.1 5.9 -0.1 0.1-5 5-5.2 5.2C13.6 27.5 11.6 23.9 9.6 20.1 9.6 20.2 9.6 20.2 9.6 20.1z"/><path fill="#f0f5fa" d="M22.3 11.9c-3.7-2-7.4-4-11-6 0 0 0 0 0 0 0 0 0 0 0 0 1.7-1.7 3.4-3.3 5.1-5 0 0 0 0 0.1-0.1C18.5 4.5 20.4 8.2 22.3 11.9 22.4 11.9 22.3 11.9 22.3 11.9z"/><path fill="#f0f5fa" d="M4.7 15c-0.6-2.4-1.2-4.7-1.8-7 0.2 0 11.9 0.6 12.7 0.6 0 0 0 0 0 0 0 0 0 0 0 0 -3.6 2.1-7.2 4.2-10.7 6.3C4.8 15 4.8 15 4.7 15z"/><path fill="#f0f5fa" d="M22.9 19.6c-0.2-4.2-0.3-8.3-0.5-12.5 2.4 0.6 4.8 1.2 7.1 1.8C27.4 12.4 25.1 16 22.9 19.6 22.9 19.6 22.9 19.6 22.9 19.6z"/><path fill="#f0f5fa" d="M27.7 16.8c0.6 2.4 1.2 4.7 1.9 7.1 -4.2-0.2-8.5-0.4-12.7-0.5 0 0 0 0 0 0C20.5 21.2 24.1 19 27.7 16.8z"/></svg>