<svg width="512" height="512" viewBox="0 0 512 512" fill="none" xmlns="http://www.w3.org/2000/svg">
<rect width="512" height="512" rx="140" fill="#0B8A85"/>
<path d="M117.875 326.622V156.704C105.369 159.547 96 170.766 96 184.122V366.622C96 382.129 108.619 394.747 124.125 394.747H347.25C360.387 394.747 371.45 385.691 374.525 373.497H164.75C138.9 373.497 117.875 352.466 117.875 326.622Z" fill="white"/>
<path d="M256 191C264.629 191 271.625 184.004 271.625 175.375C271.625 166.746 264.629 159.75 256 159.75C247.371 159.75 240.375 166.746 240.375 175.375C240.375 184.004 247.371 191 256 191Z" fill="white"/>
<path d="M262.174 292.43C260.465 293.925 258.271 294.749 256 294.749C253.729 294.749 251.535 293.925 249.826 292.43L215.649 262.524L136.625 323.987V326.624C136.625 342.13 149.244 354.749 164.75 354.749H387.875C403.381 354.749 416 342.13 416 326.624V294.244L336.148 227.702L262.174 292.43Z" fill="white"/>
<path d="M387.875 116H164.75C149.244 116 136.625 128.619 136.625 144.125V300.234L210.244 242.975C211.963 241.638 214.094 240.941 216.271 241.004C218.448 241.067 220.535 241.886 222.174 243.32L256 272.917L329.826 208.319C331.506 206.85 333.655 206.027 335.887 206C338.118 205.974 340.287 206.744 342.001 208.172L416 269.838V144.125C416 128.619 403.381 116 387.875 116ZM256 209.75C237.046 209.75 221.625 194.329 221.625 175.375C221.625 156.421 237.046 141 256 141C274.954 141 290.375 156.421 290.375 175.375C290.375 194.329 274.954 209.75 256 209.75Z" fill="white"/>
<g clip-path="url(#clip0_9721_28)">
<path d="M387 43C371.178 43 355.71 47.6919 342.554 56.4824C329.398 65.2729 319.145 77.7672 313.09 92.3853C307.035 107.003 305.45 123.089 308.537 138.607C311.624 154.126 319.243 168.38 330.431 179.569C341.62 190.757 355.874 198.376 371.393 201.463C386.911 204.55 402.997 202.965 417.615 196.91C432.233 190.855 444.727 180.602 453.518 167.446C462.308 154.29 467 138.823 467 123C467 101.783 458.571 81.4344 443.569 66.4315C428.566 51.4285 408.217 43 387 43Z" fill="#0B8A85"/>
<path d="M387 60C374.54 60 362.359 63.6949 351.999 70.6174C341.639 77.5399 333.564 87.3792 328.796 98.8909C324.027 110.403 322.78 123.07 325.211 135.291C327.641 147.511 333.642 158.737 342.452 167.548C351.263 176.358 362.489 182.359 374.709 184.789C386.93 187.22 399.597 185.973 411.109 181.204C422.621 176.436 432.46 168.361 439.383 158.001C446.305 147.641 450 135.46 450 123C450 106.291 443.363 90.2671 431.548 78.4523C419.733 66.6375 403.709 60 387 60Z" fill="#1BD98E"/>
<g clip-path="url(#clip1_9721_28)">
<path d="M352.468 120.436C350.572 112.956 348.899 106.371 347.159 99.4738C347.9 99.3556 348.649 99.2851 349.4 99.2628C360.297 99.6647 371.189 100.067 382.081 100.534C382.985 100.569 383.863 101.036 385.241 101.478L352.468 120.436Z" fill="white"/>
<path d="M368.163 136.394C369.888 137.193 371.654 137.901 373.327 138.8C382.107 143.397 390.886 148.043 399.702 152.634C400.957 153.287 401.288 154.141 400.342 155.106C395.834 159.627 391.253 164.148 386.667 168.603C386.409 168.854 385.892 168.849 385.376 169C379.523 158.284 373.689 147.606 367.874 136.967L368.163 136.394Z" fill="white"/>
<path d="M366.267 114.553V151.464L345 145.155L365.761 114.373L366.267 114.553Z" fill="white"/>
<path d="M388.521 77C394.383 88.267 399.619 99.6798 405.274 110.54C405.135 110.726 405.414 110.359 405.274 110.54L372.635 92.8733L388.521 77Z" fill="white"/>
<path d="M407.681 95.7365L429 101.739C428.733 102.428 428.421 103.099 428.065 103.749C422.26 112.73 416.437 121.695 410.594 130.643C410.108 131.381 409.241 131.884 408.172 132.833C408.006 120.169 407.846 108.164 407.681 95.7365Z" fill="white"/>
<path d="M422.126 126.519C424.192 133.632 426.211 140.584 428.323 147.837C415.361 147.144 402.579 145.828 390.106 145.175C400.688 139.001 411.296 132.828 422.126 126.519Z" fill="white"/>
</g>
</g>
<defs>
<clipPath id="clip0_9721_28">
<rect width="160" height="160" fill="white" transform="translate(307 43)"/>
</clipPath>
<clipPath id="clip1_9721_28">
<rect width="84" height="92" fill="white" transform="translate(345 77)"/>
</clipPath>
</defs>
</svg>
